<svg width="113" height="32" viewBox="0 0 113 32" fill="none" xmlns="http://www.w3.org/2000/svg">
<path d="M20.9385 29.5425H0V30.0831H20.9385V29.5425Z" fill="#CFB17B"/>
<path d="M112.262 29.5425H91.3232V30.0831H112.262V29.5425Z" fill="#CFB17B"/>
<path d="M24.1333 30.5744L24.674 30.5253C24.674 30.7219 24.7723 30.9185 24.8706 31.0659C24.9689 31.2134 25.1163 31.3117 25.3129 31.41C25.5095 31.5083 25.7061 31.5574 25.9519 31.5574C26.1485 31.5574 26.3451 31.5083 26.5417 31.4591C26.6892 31.41 26.8366 31.3117 26.8858 31.2134C26.9841 31.1151 26.9841 30.9676 26.9841 30.8693C26.9841 30.7219 26.9349 30.6236 26.8858 30.5253C26.7875 30.427 26.6892 30.3287 26.4926 30.2795C26.3943 30.2304 26.1485 30.1812 25.7553 30.0829C25.3621 29.9846 25.1163 29.8863 24.9197 29.8371C24.7231 29.7388 24.5757 29.5914 24.4774 29.4439C24.3791 29.2965 24.3299 29.0999 24.3299 28.9033C24.3299 28.7067 24.3791 28.5101 24.5265 28.3134C24.6248 28.1168 24.8214 27.9694 25.0672 27.8711C25.3129 27.7728 25.5587 27.7236 25.8536 27.7236C26.1485 27.7236 26.4434 27.7728 26.6892 27.8711C26.9349 27.9694 27.1315 28.1168 27.2298 28.3134C27.3773 28.5101 27.4264 28.7558 27.4264 29.0016L26.8366 28.9033C26.7875 28.6575 26.6892 28.4118 26.5417 28.3134C26.3943 28.166 26.1485 28.1168 25.8044 28.1168C25.4604 28.1168 25.2146 28.166 25.0672 28.3134C24.9197 28.4609 24.8214 28.6084 24.8214 28.7558C24.8214 28.9033 24.8706 29.0507 24.9689 29.149C25.0672 29.2473 25.3621 29.3456 25.8044 29.4439C26.2468 29.5422 26.5909 29.6405 26.7383 29.7388C26.9841 29.8371 27.1807 29.9846 27.279 30.1812C27.3773 30.3778 27.4756 30.5744 27.4756 30.771C27.4756 31.0168 27.4264 31.2134 27.279 31.41C27.1315 31.6066 26.9841 31.754 26.7383 31.8523C26.4926 31.9506 26.2468 31.9998 25.9027 31.9998C25.5095 31.9998 25.2146 31.9506 24.9197 31.8523C24.674 31.754 24.4774 31.5574 24.3299 31.3608C24.2316 31.0659 24.1333 30.8202 24.1333 30.5744Z" fill="#CFB17B"/>
<path d="M31.2601 31.9017L30.1296 27.6746H30.7195L31.3584 30.4271C31.4076 30.722 31.5059 31.0169 31.555 31.3118C31.6533 30.8695 31.7025 30.6237 31.7516 30.5254L32.5381 27.6746H33.2262L33.816 29.7881C33.9634 30.3288 34.0617 30.8203 34.16 31.2627C34.2092 31.0169 34.3075 30.6729 34.3567 30.3288L34.9956 27.6255H35.5363L34.3567 31.8525H33.816L32.9313 28.6577C32.833 28.4119 32.833 28.2153 32.7838 28.1662C32.7347 28.3628 32.6855 28.5102 32.6855 28.6577L31.8008 31.8525H31.2601V31.9017Z" fill="#CFB17B"/>
<path d="M38.3872 31.9016V27.6746H38.9279V31.9016H38.3872Z" fill="#CFB17B"/>
<path d="M43.2532 31.9016V28.1661H41.877V27.6746H45.2192V28.1661H43.843V31.9016H43.2532Z" fill="#CFB17B"/>
<path d="M47.677 31.9016V31.3609L49.8397 28.6576C49.9871 28.461 50.1346 28.3135 50.282 28.1661H47.9228V27.6746H50.921V28.1661L48.5617 31.1152L48.316 31.4101H51.0193V31.9016H47.677Z" fill="#CFB17B"/>
<path d="M53.8208 31.9016V27.6746H56.8682V28.1661H54.3615V29.444H56.6716V29.9355H54.3615V31.3609H56.9665V31.8524H53.8208V31.9016Z" fill="#CFB17B"/>
<path d="M60.0137 31.9016V27.6746H61.8814C62.2746 27.6746 62.5204 27.7237 62.717 27.7729C62.9136 27.8712 63.0611 27.9695 63.1594 28.1661C63.2577 28.3627 63.356 28.5593 63.356 28.805C63.356 29.1 63.2577 29.3457 63.0611 29.5423C62.8644 29.7389 62.5695 29.8864 62.1763 29.9355C62.3238 29.9847 62.4221 30.083 62.5204 30.1321C62.6678 30.2796 62.8153 30.4762 62.9628 30.6728L63.7 31.8033H63.0119L62.4712 30.9185C62.3238 30.6728 62.1763 30.4762 62.078 30.3287C61.9797 30.1813 61.8814 30.083 61.7831 30.0338C61.6848 29.9847 61.6357 29.9355 61.5374 29.9355C61.4882 29.9355 61.3899 29.9355 61.2425 29.9355H60.6035V31.8033H60.0137V31.9016ZM60.5543 29.5423H61.734C61.9797 29.5423 62.1763 29.4932 62.3238 29.444C62.4712 29.3949 62.5695 29.2966 62.6678 29.1983C62.717 29.0999 62.7661 28.9525 62.7661 28.805C62.7661 28.6084 62.717 28.461 62.5695 28.3135C62.4221 28.1661 62.1763 28.1169 61.8814 28.1169H60.5543V29.5423Z" fill="#CFB17B"/>
<path d="M66.4526 31.9016V27.6746H66.9933V31.4101H69.0577V31.9016H66.4526Z" fill="#CFB17B"/>
<path d="M71.5151 31.9016L73.1371 27.6746H73.7269L75.4472 31.9016H74.8083L74.3168 30.6236H72.5473L72.105 31.9016H71.5151ZM72.7439 30.1813H74.1693L73.7269 29.0016C73.5795 28.6576 73.4812 28.3627 73.432 28.1169C73.3829 28.4118 73.2846 28.6576 73.1863 28.9033L72.7439 30.1813Z" fill="#CFB17B"/>
<path d="M78.1506 31.9016V27.6746H78.7404L80.9523 30.9677V27.6746H81.4929V31.9016H80.9031L78.6913 28.6084V31.9016H78.1506Z" fill="#CFB17B"/>
<path d="M84.6387 31.9016V27.6746H86.1132C86.4573 27.6746 86.703 27.6746 86.8505 27.7237C87.0962 27.7729 87.2928 27.8712 87.4894 28.0186C87.6861 28.2152 87.8827 28.461 87.981 28.7559C88.0793 29.0508 88.1284 29.3949 88.1284 29.7389C88.1284 30.083 88.0793 30.3287 88.0301 30.5745C87.981 30.8202 87.8827 31.0168 87.7352 31.2135C87.6369 31.3609 87.4894 31.5084 87.342 31.6067C87.1945 31.705 87.0471 31.7541 86.8505 31.8033C86.6539 31.8524 86.4081 31.8524 86.1624 31.8524H84.6387V31.9016ZM85.1793 31.4101H86.0641C86.359 31.4101 86.5556 31.4101 86.703 31.3118C86.8505 31.2626 86.9979 31.1643 87.0962 31.1152C87.2437 30.9677 87.342 30.8202 87.3911 30.5745C87.4403 30.3779 87.4894 30.083 87.4894 29.7389C87.4894 29.2966 87.4403 28.9525 87.2928 28.7067C87.1454 28.461 86.9488 28.3135 86.7522 28.2152C86.6047 28.1661 86.359 28.1169 86.0149 28.1169H85.1302V31.4101H85.1793Z" fill="#CFB17B"/>
<path fill-rule="evenodd" clip-rule="evenodd" d="M16.4657 24.1848C13.2708 24.1848 10.1251 24.1848 6.93031 24.1848C6.78285 24.1848 6.58625 24.1848 6.43879 24.1848C6.34049 24.1848 6.24219 24.0865 6.24219 23.9882C6.24219 23.8899 6.29134 23.7916 6.38964 23.7424C6.48794 23.6933 6.6354 23.6933 6.7337 23.6933C7.17606 23.6441 7.56927 23.5458 7.96248 23.3984C8.7489 23.0543 9.28957 22.4153 9.53533 21.5798C9.68278 20.9899 9.78108 20.4493 9.78108 19.8103C9.78108 14.846 9.78108 9.88174 9.78108 4.91746C9.78108 4.42595 9.73193 3.88528 9.58448 3.39377C9.38787 2.16499 8.5523 1.37857 7.27437 1.13281C6.97946 1.08366 6.7337 1.03451 6.43879 0.985355C6.34049 0.985355 6.29134 0.887052 6.29134 0.78875C6.29134 0.690447 6.38964 0.641296 6.43879 0.641296C6.58625 0.641296 6.78285 0.592144 6.93031 0.592144C10.1743 0.592144 13.4183 0.592144 16.6131 0.592144C16.8097 0.592144 17.1538 0.493842 17.1538 0.78875C17.2029 1.18196 16.8097 1.03451 16.6131 1.08366C15.9741 1.23111 15.3843 1.32941 14.8928 1.72262C14.2047 2.31244 13.8115 3.04971 13.7132 3.93443C13.664 4.62255 13.6149 5.26152 13.6149 5.94964C13.6149 9.53768 13.6149 13.1257 13.6149 16.6646C13.6149 17.7951 13.6149 18.8764 13.8115 20.0069C14.1064 21.7764 15.0894 22.956 16.8097 23.3984C18.6283 23.8407 20.4469 23.7916 22.2655 23.2509C24.0841 22.6611 25.2146 21.334 25.9027 19.5646C26.1485 18.9256 26.2959 18.2866 26.4434 17.6476C26.4925 17.5002 26.4925 17.3527 26.5908 17.2544C26.64 17.2053 26.7383 17.1561 26.7874 17.2053C26.8857 17.2053 26.9349 17.3036 26.9349 17.3527C26.9349 17.451 26.9349 17.5493 26.9349 17.6476C26.8857 19.6629 26.8366 21.7272 26.7874 23.7424C26.7874 24.2339 26.7383 24.2831 26.1485 24.2831C23.5434 24.2831 20.9876 24.2831 18.3826 24.2831C17.7436 24.1848 17.1046 24.1848 16.4657 24.1848Z" fill="#CFB17B"/>
<path fill-rule="evenodd" clip-rule="evenodd" d="M58.2934 19.319C58.4408 19.2698 58.4408 19.1223 58.49 18.9749C60.1611 14.8953 61.7831 10.8158 63.4542 6.68706C63.7491 5.9498 63.9949 5.16337 64.1424 4.37695C64.2898 3.73799 64.2407 3.09902 64.0441 2.46005C63.7491 1.57533 63.1102 1.13297 62.2255 1.03466C62.0289 0.985513 61.7339 1.13297 61.7339 0.838059C61.7339 0.494 62.078 0.592303 62.2746 0.592303C64.4373 0.592303 66.5999 0.592303 68.7626 0.592303C68.8117 0.592303 68.8609 0.592303 68.8609 0.592303C69.0083 0.641454 69.2541 0.543151 69.3032 0.788908C69.3032 1.08382 69.0575 1.03466 68.91 1.03466C67.6321 1.28042 66.6982 2.01769 66.0593 3.09902C65.2728 4.42611 64.7322 5.85149 64.1424 7.22773C61.9305 12.6344 59.7187 17.9919 57.4578 23.3985C57.4086 23.546 57.3595 23.6443 57.3103 23.7917C57.212 24.0375 57.0646 24.1849 56.7697 24.1849C56.4748 24.1849 56.3273 24.0375 56.2781 23.7426C55.6883 22.1697 55.0985 20.646 54.4595 19.0732C52.6901 14.453 50.8715 9.8819 49.1021 5.26168C48.8071 4.47526 48.4139 3.73799 48.0699 3.00072C47.4309 1.72278 46.3987 1.08382 44.9733 0.936362C44.7767 0.936362 44.3835 1.08382 44.4327 0.690605C44.4327 0.395697 44.7767 0.494 44.9733 0.494C48.3648 0.494 51.7071 0.494 55.0985 0.494C55.1477 0.494 55.1968 0.494 55.2951 0.494C55.4426 0.494 55.6392 0.494 55.6392 0.690605C55.6392 0.936362 55.4426 0.887211 55.2951 0.936362C55.0494 0.985513 54.7545 1.03466 54.5087 1.08382C53.1816 1.37872 52.4443 2.46005 52.6901 3.78714C52.7393 4.03289 52.7884 4.3278 52.8867 4.57356C54.607 9.34124 56.3764 14.1089 58.0967 18.8766C58.0967 19.1223 58.0967 19.2698 58.2934 19.319Z" fill="#CFB17B"/>
<path fill-rule="evenodd" clip-rule="evenodd" d="M39.4193 22.5628C39.1244 22.6611 38.977 22.8577 38.7804 22.956C36.9618 24.4305 34.8483 24.8237 32.5873 24.2831C30.6213 23.8407 29.6382 22.5136 29.6382 20.4493C29.5891 17.8934 29.5891 15.3867 29.5891 12.8308C29.5891 12.5359 29.5891 12.241 29.5399 11.9952C29.4416 10.9631 28.901 10.3732 27.9179 10.0783C27.7213 10.0292 27.5247 9.98004 27.3281 9.93089C27.2298 9.88174 27.1807 9.83258 27.1807 9.68513C27.1807 9.58683 27.279 9.48853 27.3773 9.48853C27.5247 9.48853 27.6722 9.48853 27.8196 9.48853C29.0976 9.48853 30.3755 9.48853 31.6534 9.48853C32.2432 9.48853 32.2433 9.48853 32.2433 10.0783C32.2433 12.88 32.2433 15.6324 32.2433 18.4341C32.2433 19.2205 32.2924 20.0069 32.3416 20.7933C32.5382 23.0051 34.0127 23.6933 35.6838 23.6933C36.0279 23.6933 36.372 23.595 36.716 23.4966C38.2397 23.0543 39.0753 22.0221 39.2719 20.4493C39.3702 19.7611 39.4193 19.0239 39.4193 18.3358C39.4193 16.5663 39.4193 14.7969 39.4193 13.0274C39.4193 12.5851 39.3702 12.1918 39.321 11.7495C39.1736 10.9139 38.7312 10.3732 37.9448 10.1275C37.699 10.0292 37.4533 9.98004 37.2075 9.93089C37.0601 9.88174 37.0109 9.78343 37.0109 9.63598C37.0601 9.53768 37.1092 9.48853 37.2567 9.48853H37.3058C38.7804 9.48853 40.2058 9.48853 41.6803 9.48853C41.9752 9.48853 42.0735 9.63598 42.0735 9.93089C42.0735 10.0783 42.0735 10.2749 42.0735 10.4224C42.0735 13.4698 42.0735 16.5663 42.0735 19.6137C42.0735 20.3018 42.0735 20.9899 42.221 21.6781C42.4176 22.6119 42.9091 23.2509 43.8921 23.4475C43.9904 23.4475 44.1379 23.4966 44.2362 23.4966C44.3345 23.4966 44.3836 23.595 44.3836 23.6933C44.3836 23.7916 44.3345 23.8407 44.2853 23.8899C44.187 23.939 44.0396 23.939 43.9413 23.9882C42.7125 24.1356 41.4837 24.3322 40.2549 24.4797C39.7634 24.5288 39.6651 24.4797 39.5668 23.939C39.5176 23.4967 39.4685 23.0543 39.4193 22.5628Z" fill="#CFB17B"/>
<path fill-rule="evenodd" clip-rule="evenodd" d="M80.8047 17.1072C80.8047 18.5326 80.8047 19.9088 80.8047 21.3342C80.8047 21.7274 80.8538 22.1206 81.0013 22.5138C81.3945 23.4477 82.525 23.7426 83.3114 23.0545C83.4589 22.907 83.6063 22.7104 83.7538 22.563C83.8029 22.5138 83.9012 22.4647 83.9504 22.5138C83.9995 22.563 84.0487 22.6121 84.0487 22.7104C83.9995 22.907 83.9504 23.0545 83.8521 23.202C83.4589 23.8409 82.8199 24.2341 82.0826 24.3324C81.542 24.4307 81.0505 24.4307 80.5098 24.3324C79.7725 24.2341 79.1827 23.8901 78.7403 23.3003C78.5929 23.1036 78.4946 22.9562 78.3471 22.7596C78.1997 22.5138 78.0522 22.5138 77.8556 22.7104C77.6099 22.9562 77.315 23.1528 77.0692 23.3494C75.3489 24.6273 73.4811 24.7256 71.6134 23.9884C69.1067 22.9562 69.2541 19.6631 70.9253 18.2868C71.4659 17.8445 72.1049 17.5496 72.7439 17.3529C73.6286 17.1072 74.5133 16.8614 75.3489 16.6157C75.8404 16.4682 76.2828 16.2716 76.7251 16.0259C77.5116 15.5835 77.9539 14.9445 78.0522 14.0598C78.1014 13.1751 78.0522 12.2904 77.8556 11.4548C77.5116 10.2752 76.5777 9.53789 75.3489 9.53789C74.415 9.53789 73.7269 9.98025 73.3337 10.8158C73.1371 11.209 72.9896 11.6514 72.793 12.0446C72.5473 12.5361 72.0558 12.7819 71.5151 12.6836C70.9253 12.6344 70.4829 12.3395 70.2863 11.7497C70.0897 11.209 70.2863 10.6192 70.7778 10.226C71.2202 9.88195 71.6626 9.68534 72.2032 9.53789C74.415 8.89892 76.5285 8.99722 78.6912 9.8328C78.9861 9.9311 79.281 10.1277 79.5268 10.2752C80.4115 10.865 80.7555 11.7005 80.7555 12.7327C80.8047 14.3056 80.7555 15.6818 80.8047 17.1072ZM78.0522 15.9276C77.9539 15.8784 77.8556 15.9767 77.8065 16.0259C77.1183 16.5665 76.3319 16.9597 75.5947 17.4021C75.1523 17.6479 74.7099 17.8936 74.3167 18.1885C73.0879 19.1224 72.5964 20.3512 72.8422 21.8749C73.0388 23.3003 74.3167 24.1358 75.693 23.7426C76.0862 23.6443 76.4302 23.3986 76.7251 23.1528C77.5116 22.5138 77.8556 21.58 78.0522 20.5969C78.298 19.0732 78.1505 17.5004 78.1997 15.9767C78.1505 15.9767 78.1014 15.9276 78.0522 15.9276Z" fill="#CFB17B"/>
<path fill-rule="evenodd" clip-rule="evenodd" d="M89.3078 15.436C89.3078 17.1072 89.3078 18.7783 89.3078 20.4494C89.3078 20.8918 89.3569 21.3342 89.4061 21.7765C89.5044 22.6121 89.9467 23.2019 90.7332 23.4968C90.9789 23.5951 91.2738 23.6443 91.5196 23.7426C91.667 23.7917 91.7162 23.89 91.7162 24.0375C91.7162 24.1358 91.5687 24.1849 91.4704 24.1849C91.3721 24.1849 91.2247 24.1849 91.1264 24.1849C89.0129 24.1849 86.8993 24.1849 84.835 24.1849C84.6384 24.1849 84.2943 24.2832 84.2452 24.0375C84.196 23.6934 84.5892 23.7426 84.7858 23.6934C85.9163 23.4477 86.4078 22.9562 86.6044 21.7765C86.7519 21.0884 86.7519 20.3511 86.7519 19.663C86.7519 17.3529 86.801 15.0428 86.7027 12.7327C86.6536 12.192 86.6044 11.6514 86.3095 11.1598C86.0146 10.6683 85.5723 10.3734 85.0316 10.3243C84.9333 10.3243 84.7858 10.2751 84.6875 10.2751C84.5401 10.226 84.4418 10.1768 84.4418 10.0294C84.4418 9.93107 84.5401 9.88191 84.6384 9.83276C84.6875 9.83276 84.7367 9.83276 84.835 9.78361C86.2112 9.63616 87.5875 9.43955 88.9637 9.2921C89.2095 9.24295 89.3569 9.34125 89.3569 9.63616C89.3569 10.226 89.3569 10.8158 89.3569 11.4056C89.3078 12.7327 89.3078 14.0598 89.3078 15.436Z" fill="#CFB17B"/>
<path fill-rule="evenodd" clip-rule="evenodd" d="M97.8112 16.0257C97.8603 17.6477 97.762 19.5155 97.8604 21.4324C97.9587 22.7103 98.4502 23.3493 99.6789 23.6442C99.8756 23.6934 100.22 23.6442 100.17 23.9391C100.121 24.2832 99.7773 24.1357 99.5806 24.1357C97.4671 24.1357 95.4028 24.1357 93.2893 24.1357C93.191 24.1357 93.0927 24.1357 92.9944 24.1357C92.8469 24.1357 92.6995 24.1357 92.6995 23.9391C92.6995 23.7425 92.8469 23.7425 92.9944 23.6934C93.191 23.6442 93.3384 23.5951 93.535 23.5951C94.3706 23.4476 94.813 22.9069 94.9604 22.1205C95.157 21.3832 95.157 20.646 95.157 19.9579C95.157 17.7952 95.157 15.6325 95.157 13.519C95.157 13.0275 95.1079 12.5852 95.0587 12.1428C94.9604 11.3564 94.4198 10.3733 93.2893 10.275C93.191 10.275 93.0927 10.275 92.9944 10.2259C92.8961 10.1767 92.8961 10.1276 92.8961 10.0293C92.8961 9.93099 92.9452 9.88184 92.9944 9.83269C93.0435 9.83269 93.0927 9.78353 93.191 9.78353C94.5672 9.63608 95.9434 9.43947 97.3197 9.29202C97.762 9.24287 97.8112 9.24287 97.8112 9.73438C97.8112 11.7496 97.8112 13.7156 97.8112 16.0257Z" fill="#CFB17B"/>
<path fill-rule="evenodd" clip-rule="evenodd" d="M92.1587 6.4905C91.7655 6.5888 91.4706 6.53965 91.1265 6.29389C90.1435 5.60577 89.1113 4.96681 88.1283 4.32784C87.7842 4.08208 87.5385 4.08208 87.1944 4.32784C86.2114 5.01596 85.2284 5.60577 84.2453 6.29389C83.9013 6.53965 83.5572 6.63795 83.164 6.53965C83.0657 6.34304 83.2132 6.29389 83.3115 6.19559C84.5402 4.81935 85.8182 3.44312 87.047 2.06688C87.4893 1.62452 87.7351 1.62452 88.1283 2.06688C89.4062 3.44312 90.6842 4.8685 91.9129 6.24474C92.0604 6.24474 92.1587 6.29389 92.1587 6.4905Z" fill="#CFB17B"/>
<path fill-rule="evenodd" clip-rule="evenodd" d="M37.6991 6.83471C37.355 6.93301 37.0601 6.93301 36.7652 6.68726C35.0941 5.26187 33.4229 3.83648 31.7518 2.36194C31.7518 2.36194 31.7026 2.31279 31.7026 2.26364C31.7518 2.11618 31.8501 2.16533 31.9484 2.16533C32.7348 2.16533 33.5212 2.16533 34.3077 2.16533C34.6026 2.16533 34.7992 2.21449 34.9466 2.50939C35.8314 3.83648 36.7161 5.16356 37.6008 6.49065C37.6499 6.58895 37.7483 6.68726 37.6991 6.83471Z" fill="#CFB17B"/>
<path fill-rule="evenodd" clip-rule="evenodd" d="M98.0076 1.52617C98.0076 2.41089 97.2704 3.04986 96.3856 3.04986C95.5009 3.00071 94.8619 2.36174 94.9111 1.47702C94.9603 0.641447 95.6484 -0.0466715 96.5331 0.00247986C97.3687 0.00247986 98.0568 0.690598 98.0076 1.52617Z" fill="#CFB17B"/>
<path d="M103.856 24.7748C102.579 24.7748 101.546 23.7426 101.546 22.4647C101.546 21.1867 102.579 20.1545 103.856 20.1545C105.134 20.1545 106.167 21.1867 106.167 22.4647C106.167 23.6934 105.134 24.7748 103.856 24.7748ZM103.856 20.4986C102.775 20.4986 101.89 21.3833 101.89 22.4647C101.89 23.546 102.775 24.4307 103.856 24.4307C104.938 24.4307 105.823 23.546 105.823 22.4647C105.823 21.3833 104.938 20.4986 103.856 20.4986Z" fill="#CFB17B"/>
<path d="M102.53 24.0374V20.8425H103.955C104.25 20.8425 104.446 20.8917 104.594 20.9408C104.741 20.99 104.84 21.0883 104.938 21.2357C105.036 21.3832 105.085 21.5306 105.085 21.7273C105.085 21.973 105.036 22.1205 104.889 22.3171C104.741 22.4645 104.545 22.5628 104.201 22.612C104.299 22.6611 104.397 22.7103 104.446 22.7594C104.545 22.8577 104.692 23.0052 104.79 23.2018L105.331 24.0865H104.79L104.348 23.4476C104.25 23.2509 104.102 23.1035 104.053 23.0052C103.955 22.9069 103.906 22.8086 103.857 22.8086C103.807 22.7594 103.709 22.7594 103.66 22.7103C103.611 22.7103 103.513 22.7103 103.414 22.7103H102.923V24.1357H102.53V24.0374ZM102.972 22.2679H103.857C104.053 22.2679 104.201 22.2679 104.299 22.2188C104.397 22.1696 104.496 22.1205 104.545 22.0222C104.594 21.9239 104.643 21.8256 104.643 21.7273C104.643 21.5798 104.594 21.4323 104.496 21.334C104.397 21.2357 104.201 21.1866 103.955 21.1866H102.972V22.2679Z" fill="#CFB17B"/>
</svg>
