<svg width="512" height="512" viewBox="0 0 512 512" fill="none" xmlns="http://www.w3.org/2000/svg">
<rect width="512" height="512" fill="white"/>
<path d="M116.372 310.17H33V312.332H116.372V310.17Z" fill="#CFB17B"/>
<path d="M480 310.17H396.628V312.332H480V310.17Z" fill="#CFB17B"/>
<path d="M129.093 314.298L131.246 314.102C131.246 314.888 131.637 315.675 132.029 316.265C132.42 316.854 133.007 317.248 133.79 317.641C134.573 318.034 135.356 318.231 136.335 318.231C137.117 318.231 137.9 318.034 138.683 317.837C139.27 317.641 139.857 317.248 140.053 316.854C140.444 316.461 140.444 315.871 140.444 315.478C140.444 314.888 140.249 314.495 140.053 314.102C139.662 313.709 139.27 313.315 138.487 313.119C138.096 312.922 137.117 312.726 135.552 312.332C133.986 311.939 133.007 311.546 132.225 311.349C131.442 310.956 130.855 310.366 130.463 309.777C130.072 309.187 129.876 308.4 129.876 307.614C129.876 306.827 130.072 306.041 130.659 305.255C131.05 304.468 131.833 303.878 132.812 303.485C133.79 303.092 134.769 302.895 135.943 302.895C137.117 302.895 138.292 303.092 139.27 303.485C140.249 303.878 141.032 304.468 141.423 305.255C142.01 306.041 142.206 307.024 142.206 308.007L139.857 307.614C139.662 306.631 139.27 305.648 138.683 305.255C138.096 304.665 137.117 304.468 135.747 304.468C134.377 304.468 133.399 304.665 132.812 305.255C132.225 305.844 131.833 306.434 131.833 307.024C131.833 307.614 132.029 308.204 132.42 308.597C132.812 308.99 133.986 309.383 135.747 309.777C137.509 310.17 138.879 310.563 139.466 310.956C140.444 311.349 141.227 311.939 141.619 312.726C142.01 313.512 142.401 314.298 142.401 315.085C142.401 316.068 142.206 316.854 141.619 317.641C141.032 318.427 140.444 319.017 139.466 319.41C138.487 319.803 137.509 320 136.139 320C134.573 320 133.399 319.803 132.225 319.41C131.246 319.017 130.463 318.231 129.876 317.444C129.485 316.265 129.093 315.281 129.093 314.298Z" fill="#CFB17B"/>
<path d="M157.471 319.607L152.97 302.699H155.318L157.863 313.709C158.058 314.888 158.45 316.068 158.645 317.248C159.037 315.478 159.232 314.495 159.428 314.102L162.56 302.699H165.299L167.648 311.153C168.235 313.315 168.627 315.281 169.018 317.051C169.214 316.068 169.605 314.692 169.801 313.315L172.345 302.502H174.498L169.801 319.41H167.648L164.125 306.631C163.734 305.648 163.734 304.861 163.538 304.665C163.342 305.451 163.147 306.041 163.147 306.631L159.624 319.41H157.471V319.607Z" fill="#CFB17B"/>
<path d="M185.849 319.607V302.699H188.002V319.607H185.849Z" fill="#CFB17B"/>
<path d="M205.224 319.607V304.665H199.744V302.699H213.053V304.665H207.573V319.607H205.224Z" fill="#CFB17B"/>
<path d="M222.838 319.607V317.444L231.449 306.631C232.036 305.844 232.623 305.255 233.211 304.665H223.817V302.699H235.755V304.665L226.361 316.461L225.382 317.641H236.146V319.607H222.838Z" fill="#CFB17B"/>
<path d="M247.302 319.607V302.699H259.436V304.665H249.454V309.777H258.653V311.743H249.454V317.444H259.827V319.41H247.302V319.607Z" fill="#CFB17B"/>
<path d="M271.961 319.607V302.699H279.398C280.964 302.699 281.942 302.895 282.725 303.092C283.508 303.485 284.095 303.878 284.486 304.665C284.878 305.451 285.269 306.238 285.269 307.221C285.269 308.4 284.878 309.383 284.095 310.17C283.312 310.956 282.138 311.546 280.572 311.743C281.159 311.939 281.551 312.332 281.942 312.529C282.529 313.119 283.116 313.905 283.704 314.692L286.639 319.214H283.899L281.746 315.675C281.159 314.692 280.572 313.905 280.181 313.315C279.789 312.726 279.398 312.332 279.007 312.136C278.615 311.939 278.419 311.743 278.028 311.743C277.832 311.743 277.441 311.743 276.854 311.743H274.31V319.214H271.961V319.607ZM274.114 310.17H278.811C279.789 310.17 280.572 309.973 281.159 309.777C281.746 309.58 282.138 309.187 282.529 308.793C282.725 308.4 282.921 307.81 282.921 307.221C282.921 306.434 282.725 305.844 282.138 305.255C281.551 304.665 280.572 304.468 279.398 304.468H274.114V310.17Z" fill="#CFB17B"/>
<path d="M297.599 319.607V302.699H299.752V317.641H307.972V319.607H297.599Z" fill="#CFB17B"/>
<path d="M317.757 319.607L324.215 302.699H326.564L333.414 319.607H330.87L328.912 314.495H321.867L320.106 319.607H317.757ZM322.65 312.726H328.325L326.564 308.007C325.977 306.631 325.585 305.451 325.39 304.468C325.194 305.648 324.803 306.631 324.411 307.614L322.65 312.726Z" fill="#CFB17B"/>
<path d="M344.178 319.607V302.699H346.526L355.333 315.871V302.699H357.486V319.607H355.137L346.331 306.434V319.607H344.178Z" fill="#CFB17B"/>
<path d="M370.011 319.607V302.699H375.883C377.253 302.699 378.231 302.699 378.818 302.895C379.797 303.092 380.58 303.485 381.363 304.075C382.145 304.861 382.928 305.844 383.32 307.024C383.711 308.204 383.907 309.58 383.907 310.956C383.907 312.332 383.711 313.315 383.515 314.298C383.32 315.281 382.928 316.068 382.341 316.854C381.95 317.444 381.362 318.034 380.775 318.427C380.188 318.82 379.601 319.017 378.818 319.214C378.035 319.41 377.057 319.41 376.078 319.41H370.011V319.607ZM375.687 317.641C376.861 317.641 377.644 317.641 378.231 317.248C378.818 317.051 379.405 316.658 379.797 316.461C380.384 315.871 380.775 315.281 380.971 314.298C381.167 313.512 381.363 312.332 381.363 310.956C381.363 309.187 381.167 307.81 380.58 306.827C379.993 305.844 379.21 305.255 378.427 304.861C377.84 304.665 376.861 304.468 375.491 304.468H371.968V317.641H375.687Z" fill="#CFB17B"/>
<path fill-rule="evenodd" clip-rule="evenodd" d="M98.5626 288.74C85.8415 288.74 73.3161 288.74 60.595 288.74C60.0079 288.74 59.225 288.74 58.6379 288.74C58.2465 288.74 57.8551 288.347 57.8551 287.953C57.8551 287.56 58.0508 287.167 58.4422 286.97C58.8336 286.774 59.4208 286.774 59.8122 286.774C61.5736 286.577 63.1392 286.184 64.7049 285.594C67.8363 284.218 69.9891 281.662 70.9676 278.32C71.5547 275.96 71.9461 273.798 71.9461 271.242C71.9461 251.385 71.9461 231.528 71.9461 211.67C71.9461 209.704 71.7504 207.542 71.1633 205.576C70.3805 200.661 67.0534 197.515 61.965 196.532C60.7907 196.335 59.8122 196.139 58.6379 195.942C58.2465 195.942 58.0508 195.549 58.0508 195.156C58.0508 194.762 58.4422 194.566 58.6379 194.566C59.225 194.566 60.0079 194.369 60.595 194.369C73.5118 194.369 86.4286 194.369 99.1497 194.369C99.9326 194.369 101.303 193.976 101.303 195.156C101.498 196.728 99.9326 196.139 99.1497 196.335C96.6055 196.925 94.257 197.318 92.2999 198.891C89.56 201.25 87.9943 204.199 87.6029 207.738C87.4072 210.491 87.2115 213.047 87.2115 215.799C87.2115 230.151 87.2115 244.504 87.2115 258.659C87.2115 263.181 87.2115 267.506 87.9943 272.028C89.1686 279.106 93.0828 283.825 99.9326 285.594C107.174 287.364 114.415 287.167 121.656 285.004C128.898 282.645 133.399 277.337 136.139 270.259C137.117 267.703 137.704 265.147 138.292 262.591C138.487 262.001 138.487 261.412 138.879 261.018C139.074 260.822 139.466 260.625 139.662 260.822C140.053 260.822 140.249 261.215 140.249 261.412C140.249 261.805 140.249 262.198 140.249 262.591C140.053 270.652 139.857 278.909 139.662 286.97C139.662 288.936 139.466 289.133 137.117 289.133C126.745 289.133 116.568 289.133 106.195 289.133C103.651 288.74 101.107 288.74 98.5626 288.74Z" fill="#CFB17B"/>
<path fill-rule="evenodd" clip-rule="evenodd" d="M265.111 269.276C265.698 269.079 265.698 268.489 265.894 267.9C272.548 251.581 279.007 235.263 285.661 218.748C286.835 215.799 287.813 212.653 288.401 209.508C288.988 206.952 288.792 204.396 288.009 201.84C286.835 198.301 284.291 196.532 280.768 196.139C279.985 195.942 278.811 196.532 278.811 195.352C278.811 193.976 280.181 194.369 280.964 194.369C289.575 194.369 298.186 194.369 306.797 194.369C306.993 194.369 307.189 194.369 307.189 194.369C307.776 194.566 308.754 194.173 308.95 195.156C308.95 196.335 307.972 196.139 307.384 196.139C302.296 197.122 298.578 200.071 296.033 204.396C292.902 209.704 290.749 215.406 288.401 220.911C279.594 242.537 270.787 263.967 261.784 285.594C261.588 286.184 261.393 286.577 261.197 287.167C260.806 288.15 260.218 288.74 259.044 288.74C257.87 288.74 257.283 288.15 257.087 286.97C254.739 280.679 252.39 274.584 249.846 268.293C242.8 249.812 235.559 231.528 228.514 213.047C227.339 209.901 225.774 206.952 224.404 204.003C221.859 198.891 217.75 196.335 212.074 195.745C211.291 195.745 209.725 196.335 209.921 194.762C209.921 193.583 211.291 193.976 212.074 193.976C225.578 193.976 238.886 193.976 252.39 193.976C252.586 193.976 252.782 193.976 253.173 193.976C253.76 193.976 254.543 193.976 254.543 194.762C254.543 195.745 253.76 195.549 253.173 195.745C252.194 195.942 251.02 196.139 250.042 196.335C244.757 197.515 241.822 201.84 242.8 207.149C242.996 208.132 243.192 209.311 243.583 210.294C250.433 229.365 257.479 248.436 264.328 267.506C264.328 268.489 264.328 269.079 265.111 269.276Z" fill="#CFB17B"/>
<path fill-rule="evenodd" clip-rule="evenodd" d="M189.959 282.252C188.785 282.645 188.197 283.431 187.415 283.825C180.173 289.723 171.758 291.296 162.755 289.133C154.927 287.364 151.013 282.055 151.013 273.798C150.817 263.574 150.817 253.547 150.817 243.324C150.817 242.144 150.817 240.965 150.621 239.982C150.23 235.853 148.077 233.494 144.163 232.314C143.38 232.117 142.597 231.921 141.814 231.724C141.423 231.528 141.227 231.331 141.227 230.741C141.227 230.348 141.619 229.955 142.01 229.955C142.597 229.955 143.184 229.955 143.771 229.955C148.86 229.955 153.948 229.955 159.037 229.955C161.385 229.955 161.385 229.955 161.385 232.314C161.385 243.521 161.385 254.53 161.385 265.737C161.385 268.883 161.581 272.028 161.777 275.174C162.56 284.021 168.431 286.774 175.085 286.774C176.455 286.774 177.825 286.38 179.195 285.987C185.262 284.218 188.589 280.089 189.372 273.798C189.763 271.045 189.959 268.096 189.959 265.344C189.959 258.266 189.959 251.188 189.959 244.11C189.959 242.341 189.763 240.768 189.567 238.999C188.98 235.656 187.219 233.494 184.088 232.511C183.109 232.117 182.13 231.921 181.152 231.724C180.565 231.528 180.369 231.134 180.369 230.545C180.565 230.151 180.761 229.955 181.348 229.955H181.543C187.415 229.955 193.09 229.955 198.961 229.955C200.136 229.955 200.527 230.545 200.527 231.724C200.527 232.314 200.527 233.1 200.527 233.69C200.527 245.88 200.527 258.266 200.527 270.455C200.527 273.208 200.527 275.96 201.114 278.713C201.897 282.448 203.854 285.004 207.768 285.791C208.16 285.791 208.747 285.987 209.138 285.987C209.53 285.987 209.725 286.38 209.725 286.774C209.725 287.167 209.53 287.364 209.334 287.56C208.943 287.757 208.356 287.757 207.964 287.953C203.071 288.543 198.179 289.33 193.286 289.919C191.329 290.116 190.937 289.919 190.546 287.757C190.35 285.987 190.155 284.218 189.959 282.252Z" fill="#CFB17B"/>
<path fill-rule="evenodd" clip-rule="evenodd" d="M354.746 260.429C354.746 266.13 354.746 271.635 354.746 277.337C354.746 278.909 354.942 280.482 355.529 282.055C357.095 285.791 361.596 286.97 364.727 284.218C365.314 283.628 365.902 282.842 366.489 282.252C366.684 282.055 367.076 281.859 367.271 282.055C367.467 282.252 367.663 282.448 367.663 282.842C367.467 283.628 367.271 284.218 366.88 284.808C365.314 287.364 362.77 288.936 359.835 289.33C357.682 289.723 355.725 289.723 353.572 289.33C350.636 288.936 348.288 287.56 346.526 285.201C345.939 284.414 345.548 283.825 344.961 283.038C344.374 282.055 343.786 282.055 343.004 282.842C342.025 283.825 340.851 284.611 339.872 285.397C333.022 290.509 325.585 290.902 318.148 287.953C308.167 283.825 308.754 270.652 315.409 265.147C317.561 263.378 320.106 262.198 322.65 261.412C326.173 260.429 329.695 259.446 333.022 258.463C334.979 257.873 336.741 257.086 338.502 256.103C341.634 254.334 343.395 251.778 343.786 248.239C343.982 244.7 343.786 241.161 343.004 237.819C341.634 233.1 337.915 230.151 333.022 230.151C329.304 230.151 326.564 231.921 324.998 235.263C324.215 236.836 323.628 238.605 322.845 240.178C321.867 242.144 319.91 243.127 317.757 242.734C315.409 242.537 313.647 241.358 312.864 238.999C312.081 236.836 312.864 234.477 314.821 232.904C316.583 231.528 318.344 230.741 320.497 230.151C329.304 227.595 337.719 227.989 346.331 231.331C347.505 231.724 348.679 232.511 349.658 233.1C353.18 235.46 354.55 238.802 354.55 242.931C354.746 249.222 354.55 254.727 354.746 260.429ZM343.786 255.71C343.395 255.513 343.004 255.907 342.808 256.103C340.068 258.266 336.937 259.839 334.001 261.608C332.24 262.591 330.478 263.574 328.912 264.754C324.02 268.489 322.063 273.405 323.041 279.499C323.824 285.201 328.912 288.543 334.392 286.97C335.958 286.577 337.328 285.594 338.502 284.611C341.634 282.055 343.004 278.32 343.786 274.388C344.765 268.293 344.178 262.001 344.373 255.907C344.178 255.907 343.982 255.71 343.786 255.71Z" fill="#CFB17B"/>
<path fill-rule="evenodd" clip-rule="evenodd" d="M388.604 253.744C388.604 260.429 388.604 267.113 388.604 273.798C388.604 275.567 388.799 277.337 388.995 279.106C389.387 282.448 391.148 284.808 394.279 285.987C395.258 286.38 396.432 286.577 397.411 286.97C397.998 287.167 398.194 287.56 398.194 288.15C398.194 288.543 397.606 288.74 397.215 288.74C396.824 288.74 396.236 288.74 395.845 288.74C387.43 288.74 379.014 288.74 370.794 288.74C370.011 288.74 368.641 289.133 368.446 288.15C368.25 286.774 369.816 286.97 370.599 286.774C375.1 285.791 377.057 283.825 377.84 279.106C378.427 276.354 378.427 273.405 378.427 270.652C378.427 261.412 378.623 252.171 378.231 242.931C378.035 240.768 377.84 238.605 376.665 236.639C375.491 234.673 373.73 233.494 371.577 233.297C371.186 233.297 370.599 233.1 370.207 233.1C369.62 232.904 369.229 232.707 369.229 232.117C369.229 231.724 369.62 231.528 370.011 231.331C370.207 231.331 370.403 231.331 370.794 231.134C376.274 230.545 381.754 229.758 387.234 229.168C388.212 228.972 388.799 229.365 388.799 230.545C388.799 232.904 388.799 235.263 388.799 237.622C388.604 242.931 388.604 248.239 388.604 253.744Z" fill="#CFB17B"/>
<path fill-rule="evenodd" clip-rule="evenodd" d="M422.461 256.103C422.657 262.591 422.266 270.062 422.657 277.73C423.049 282.842 425.006 285.397 429.898 286.577C430.681 286.774 432.051 286.577 431.856 287.757C431.66 289.133 430.29 288.543 429.507 288.543C421.092 288.543 412.872 288.543 404.456 288.543C404.065 288.543 403.673 288.543 403.282 288.543C402.695 288.543 402.108 288.543 402.108 287.757C402.108 286.97 402.695 286.97 403.282 286.774C404.065 286.577 404.652 286.38 405.435 286.38C408.762 285.791 410.523 283.628 411.11 280.482C411.893 277.533 411.893 274.584 411.893 271.832C411.893 263.181 411.893 254.53 411.893 246.076C411.893 244.11 411.698 242.341 411.502 240.571C411.11 237.426 408.958 233.494 404.456 233.1C404.065 233.1 403.673 233.1 403.282 232.904C402.891 232.707 402.891 232.511 402.891 232.117C402.891 231.724 403.086 231.528 403.282 231.331C403.478 231.331 403.673 231.134 404.065 231.134C409.545 230.545 415.025 229.758 420.504 229.168C422.266 228.972 422.461 228.972 422.461 230.938C422.461 238.999 422.461 246.863 422.461 256.103Z" fill="#CFB17B"/>
<path fill-rule="evenodd" clip-rule="evenodd" d="M399.955 217.962C398.389 218.355 397.215 218.158 395.845 217.175C391.931 214.423 387.821 211.867 383.907 209.311C382.537 208.328 381.558 208.328 380.188 209.311C376.274 212.064 372.36 214.423 368.446 217.175C367.076 218.158 365.706 218.552 364.14 218.158C363.749 217.372 364.336 217.175 364.727 216.782C369.62 211.277 374.708 205.772 379.601 200.267C381.363 198.498 382.341 198.498 383.907 200.267C388.995 205.772 394.084 211.474 398.976 216.979C399.564 216.979 399.955 217.175 399.955 217.962Z" fill="#CFB17B"/>
<path fill-rule="evenodd" clip-rule="evenodd" d="M183.109 219.338C181.739 219.731 180.565 219.731 179.391 218.748C172.736 213.047 166.082 207.345 159.428 201.447C159.428 201.447 159.232 201.25 159.232 201.054C159.428 200.464 159.82 200.661 160.211 200.661C163.342 200.661 166.474 200.661 169.605 200.661C170.779 200.661 171.562 200.857 172.149 202.037C175.672 207.345 179.195 212.653 182.718 217.962C182.913 218.355 183.305 218.748 183.109 219.338Z" fill="#CFB17B"/>
<path fill-rule="evenodd" clip-rule="evenodd" d="M423.244 198.105C423.244 201.644 420.309 204.199 416.786 204.199C413.263 204.003 410.719 201.447 410.915 197.908C411.11 194.566 413.85 191.813 417.373 192.01C420.7 192.01 423.44 194.762 423.244 198.105Z" fill="#CFB17B"/>
<path d="M446.534 291.099C441.445 291.099 437.335 286.97 437.335 281.859C437.335 276.747 441.445 272.618 446.534 272.618C451.622 272.618 455.732 276.747 455.732 281.859C455.732 286.774 451.622 291.099 446.534 291.099ZM446.534 273.994C442.228 273.994 438.705 277.533 438.705 281.859C438.705 286.184 442.228 289.723 446.534 289.723C450.839 289.723 454.362 286.184 454.362 281.859C454.362 277.533 450.839 273.994 446.534 273.994Z" fill="#CFB17B"/>
<path d="M441.25 275.371H446.925C448.099 275.371 448.882 275.567 449.469 275.764C450.057 275.96 450.448 276.354 450.839 276.943C451.231 277.533 451.426 278.123 451.426 278.909C451.426 279.893 451.231 280.482 450.644 281.269C450.057 281.859 449.274 282.252 447.904 282.448C448.295 282.645 448.687 282.842 448.882 283.038C449.274 283.431 449.861 284.021 450.252 284.808L452.405 288.347H450.252L448.491 285.791C448.099 285.004 447.512 284.414 447.317 284.021C446.925 283.628 446.729 283.235 446.534 283.235C446.338 283.038 445.947 283.038 445.751 282.842C445.555 282.842 445.164 282.842 444.772 282.842H442.815V288.543H441.25V275.371ZM443.011 281.072H446.534C447.317 281.072 447.904 281.072 448.295 280.876C448.687 280.679 449.078 280.482 449.274 280.089C449.469 279.696 449.665 279.303 449.665 278.909C449.665 278.32 449.469 277.73 449.078 277.337C448.687 276.943 447.904 276.747 446.925 276.747H443.011V281.072Z" fill="#CFB17B"/>
</svg>
